# This file uses centimeters as units for non-parametric coordinates.

v -10.057521 0.060843 9.819289
v -9.910632 0.000000 9.819289
v -9.910632 0.000000 -9.956016
v -10.057521 0.060843 -9.956016
v -9.910632 0.060843 9.966178
v 9.864673 0.060843 9.966178
v 9.864673 0.000000 9.819289
v 10.011561 0.060843 9.819289
v 10.011561 0.060843 -9.956016
v 9.864673 0.000000 -9.956016
v -9.910632 0.060843 -10.102904
v 9.864673 0.060843 -10.102904
v -10.030524 0.087840 9.939181
v 9.984565 0.087840 9.939181
v -10.030524 0.087840 -10.075908
v 9.984565 0.087840 -10.075908
v -9.910632 0.207732 10.027021
v -10.057521 0.207732 9.966178
v -10.118364 0.207732 9.819289
v 10.072405 0.207732 9.819289
v 10.011561 0.207732 9.966178
v 9.864673 0.207732 10.027021
v -10.057521 1.012932 9.819289
v -10.118364 0.866043 9.819289
v -10.057521 0.866043 9.966178
v -9.910632 0.866043 10.027021
v -9.910632 1.012932 9.966178
v -9.910632 1.073775 9.819289
v 10.011561 1.012932 9.819289
v 9.864673 1.073775 9.819289
v 9.864673 1.012932 9.966178
v 9.864673 0.866043 10.027021
v 10.011561 0.866043 9.966178
v 10.072405 0.866043 9.819289
v -10.057521 0.866043 -10.102904
v -10.118364 0.866043 -9.956016
v -10.057521 1.012932 -9.956016
v -9.910632 1.073775 -9.956016
v -9.910632 1.012932 -10.102904
v -9.910632 0.866043 -10.163748
v 10.011561 0.866043 -10.102904
v 9.864673 0.866043 -10.163748
v 9.864673 1.012932 -10.102904
v 9.864673 1.073775 -9.956016
v 10.011561 1.012932 -9.956016
v 10.072405 0.866043 -9.956016
v -10.118364 0.207732 -9.956016
v -10.057521 0.207732 -10.102904
v -9.910632 0.207732 -10.163748
v 9.864673 0.207732 -10.163748
v 10.011561 0.207732 -10.102904
v 10.072405 0.207732 -9.956016
v -10.030524 0.985935 9.939181
v 9.984565 0.985935 9.939181
v -10.030524 0.985935 -10.075908
v 9.984565 0.985935 -10.075908
vt 0.072318 0.942075
vt 0.072497 0.935205
vt 0.927573 0.935111
vt 0.927759 0.941984
vt 0.065625 0.935386
vt 0.065545 0.079945
vt 0.072415 0.080130
vt 0.072228 0.073258
vt 0.927669 0.073167
vt 0.927490 0.080036
vt 0.934442 0.935296
vt 0.934362 0.079855
vt 0.066763 0.940941
vt 0.066677 0.074394
vt 0.933310 0.940848
vt 0.933224 0.074301
vt 0.927805 0.951016
vt 0.927608 0.957885
vt 0.072593 0.957846
vt 0.072401 0.950973
vt 0.955530 0.933719
vt 0.948657 0.933912
vt 0.948498 0.078507
vt 0.955367 0.078703
vt 0.934470 0.957675
vt 0.955317 0.940524
vt 0.044831 0.078595
vt 0.051705 0.078404
vt 0.051548 0.933811
vt 0.044678 0.933613
vt 0.955155 0.071841
vt 0.045048 0.071790
vt 0.927612 0.986351
vt 0.927803 0.993224
vt 0.072399 0.993181
vt 0.072596 0.986311
vt 0.072318 0.942075
vt 0.072497 0.935205
vt 0.927573 0.935111
vt 0.927759 0.941984
vt 0.065625 0.935386
vt 0.065545 0.079945
vt 0.072415 0.080130
vt 0.990865 0.933903
vt 0.983995 0.933708
vt 0.983833 0.078692
vt 0.990706 0.078499
vt 0.072228 0.073258
vt 0.927669 0.073167
vt 0.927490 0.080036
vt 0.009496 0.078397
vt 0.016366 0.078595
vt 0.016212 0.933613
vt 0.009340 0.933803
vt 0.065787 0.957631
vt 0.076000 0.050258
vt 0.069139 0.050469
vt 0.075993 0.021793
vt 0.075801 0.014919
vt 0.931208 0.014862
vt 0.931011 0.021732
vt 0.934442 0.935296
vt 0.934362 0.079855
vt 0.937823 0.050412
vt 0.931018 0.050197
vt 0.044888 0.940474
vt 0.075804 0.057128
vt 0.931210 0.057070
vt 0.933359 0.952145
vt 0.949788 0.939442
vt 0.050576 0.072874
vt 0.949626 0.072953
vt 0.066763 0.940941
vt 0.934417 0.986566
vt 0.933334 0.992095
vt 0.984208 0.940569
vt 0.989737 0.939457
vt 0.016156 0.071733
vt 0.010627 0.072843
vt 0.066677 0.074394
vt 0.984046 0.071887
vt 0.989575 0.072969
vt 0.069188 0.021579
vt 0.070271 0.016049
vt 0.065735 0.986522
vt 0.066846 0.992052
vt 0.933310 0.940848
vt 0.015997 0.940418
vt 0.010468 0.939334
vt 0.937873 0.021521
vt 0.936761 0.015991
vt 0.933224 0.074301
vt 0.066871 0.952102
vt 0.070250 0.055999
vt 0.050418 0.939364
vt 0.936741 0.055941
vn -0.707105 -0.707106 0.002045
vn -0.707105 -0.707106 -0.002045
vn -0.003046 -0.999991 -0.003046
vn -0.003046 -0.999991 0.003046
vn 0.003046 -0.999991 0.003046
vn 0.002045 -0.707105 0.707105
vn -0.002045 -0.707105 0.707105
vn 0.003046 -0.999991 -0.003046
vn 0.707105 -0.707106 -0.002045
vn 0.707105 -0.707106 0.002045
vn -0.002045 -0.707105 -0.707105
vn 0.002045 -0.707105 -0.707105
vn -0.577350 -0.577350 0.577351
vn 0.577349 -0.577351 0.577351
vn -0.577351 -0.577349 -0.577351
vn 0.577350 -0.577350 -0.577351
vn -0.997166 -0.075183 0.002854
vn -0.997166 -0.075183 -0.002854
vn -0.002854 -0.075183 0.997166
vn 0.002854 -0.075183 0.997166
vn -0.706111 -0.053044 0.706112
vn -0.706111 0.053044 0.706112
vn -0.997166 0.075183 0.002854
vn -0.002854 0.075183 0.997166
vn 0.997166 -0.075183 0.002854
vn 0.997166 -0.075183 -0.002854
vn 0.706111 -0.053044 0.706112
vn 0.706111 0.053044 0.706112
vn 0.002854 0.075183 0.997166
vn 0.997166 0.075183 0.002854
vn -0.707105 0.707106 0.002045
vn -0.707105 0.707106 -0.002045
vn -0.997166 0.075183 -0.002854
vn -0.003046 0.999991 0.003046
vn -0.003046 0.999991 -0.003046
vn -0.002045 0.707105 0.707105
vn 0.002045 0.707105 0.707105
vn 0.003046 0.999991 0.003046
vn 0.707105 0.707106 0.002045
vn 0.707105 0.707106 -0.002045
vn 0.003046 0.999991 -0.003046
vn 0.997166 0.075183 -0.002854
vn -0.706112 -0.053044 -0.706111
vn -0.706112 0.053044 -0.706111
vn -0.002854 -0.075183 -0.997166
vn -0.002854 0.075183 -0.997166
vn -0.002045 0.707105 -0.707105
vn 0.002045 0.707105 -0.707105
vn 0.002854 0.075183 -0.997166
vn 0.706112 -0.053044 -0.706111
vn 0.002854 -0.075183 -0.997166
vn 0.706112 0.053044 -0.706111
vn -0.577350 0.577350 0.577351
vn 0.577350 0.577350 0.577351
vn -0.577350 0.577350 -0.577351
vn 0.577350 0.577350 -0.577350
s 1
f 1/1/1 4/4/2 3/3/3 2/2/4
f 2/2/4 7/7/5 6/6/6 5/5/7
f 7/7/5 10/10/8 9/9/9 8/8/10
f 11/11/11 12/12/12 10/10/8 3/3/3
f 2/2/4 3/3/3 10/10/8 7/7/5
f 5/5/7 13/13/13 1/1/1 2/2/4
f 8/8/10 14/14/14 6/6/6 7/7/5
f 4/4/2 15/15/15 11/11/11 3/3/3
f 12/12/12 16/16/16 9/9/9 10/10/8
f 1/17/1 19/18/17 47/19/18 4/20/2
f 17/21/19 5/22/7 6/23/6 22/24/20
f 19/18/17 18/25/21 25/74/22 24/33/23
f 18/26/21 17/21/19 26/45/24 25/76/22
f 20/27/25 8/28/10 9/29/9 52/30/26
f 22/24/20 21/31/27 33/81/28 32/46/29
f 21/32/27 20/27/25 34/52/30 33/78/28
f 24/33/23 23/34/31 37/35/32 36/36/33
f 23/37/31 28/38/34 38/39/35 37/40/32
f 28/38/34 27/41/36 31/42/37 30/43/38
f 27/44/36 26/45/24 32/46/29 31/47/37
f 30/43/38 29/48/39 45/49/40 44/50/41
f 29/51/39 34/52/30 46/53/42 45/54/40
f 48/55/43 47/19/18 36/36/33 35/85/44
f 49/56/45 48/57/43 35/83/44 40/58/46
f 40/58/46 39/59/47 43/60/48 42/61/49
f 39/62/47 38/39/35 44/50/41 43/63/48
f 51/64/50 50/65/51 42/61/49 41/90/52
f 52/30/26 51/66/50 41/88/52 46/53/42
f 11/67/11 49/56/45 50/65/51 12/68/12
f 17/21/19 22/24/20 32/46/29 26/45/24
f 28/38/34 30/43/38 44/50/41 38/39/35
f 42/61/49 50/65/51 49/56/45 40/58/46
f 20/27/25 52/30/26 46/53/42 34/52/30
f 47/19/18 19/18/17 24/33/23 36/36/33
f 18/25/21 19/18/17 1/17/1 13/69/13
f 5/22/7 17/21/19 18/26/21 13/70/13
f 8/28/10 20/27/25 21/32/27 14/71/14
f 21/31/27 22/24/20 6/23/6 14/72/14
f 27/41/36 28/38/34 23/37/31 53/73/53
f 23/34/31 24/33/23 25/74/22 53/75/53
f 25/76/22 26/45/24 27/44/36 53/77/53
f 33/78/28 34/52/30 29/51/39 54/79/54
f 29/48/39 30/43/38 31/42/37 54/80/54
f 31/47/37 32/46/29 33/81/28 54/82/54
f 39/59/47 40/58/46 35/83/44 55/84/55
f 35/85/44 36/36/33 37/35/32 55/86/55
f 37/40/32 38/39/35 39/62/47 55/87/55
f 45/54/40 46/53/42 41/88/52 56/89/56
f 41/90/52 42/61/49 43/60/48 56/91/56
f 43/63/48 44/50/41 45/49/40 56/92/56
f 4/20/2 47/19/18 48/55/43 15/93/15
f 48/57/43 49/56/45 11/67/11 15/94/15
f 51/66/50 52/30/26 9/29/9 16/95/16
f 12/68/12 50/65/51 51/64/50 16/96/16
